<?xml version="1.0" encoding="UTF-8"?>
<svg width="39px" height="28px" viewBox="0 0 39 28" version="1.1" xmlns="http://www.w3.org/2000/svg" xmlns:xlink="http://www.w3.org/1999/xlink">
    <!-- Generator: Sketch 41.2 (35397) - http://www.bohemiancoding.com/sketch -->
    <title>o2</title>
    <desc>Created with Sketch.</desc>
    <defs></defs>
    <g id="Symbols" stroke="none" stroke-width="1" fill="none" fill-rule="evenodd">
        <g id="main-bar" transform="translate(-24.000000, -11.000000)">
            <rect id="bg" fill="#6190E8" x="0" y="0" width="1024" height="50"></rect>
            <g id="o2" transform="translate(24.000000, 11.000000)" fill="#FFFFFF">
                <g id="Group">
                    <path d="M9.08406544,17.5167238 C13.9226838,17.5167238 17.8593131,13.6229106 17.8593131,8.83691855 C17.8593131,4.0505758 13.9226838,0.156762544 9.08406544,0.156762544 C4.24509253,0.156762544 0.308463251,4.05092651 0.308463251,8.83691855 C0.308463251,13.6229106 4.24473797,17.5167238 9.08406544,17.5167238 L9.08406544,17.5167238 Z M9.08406544,3.51926651 C12.0485037,3.51926651 14.4598353,5.90472252 14.4598353,8.83691855 C14.4598353,11.7687639 12.0485037,14.1542199 9.08406544,14.1542199 C6.11962726,14.1542199 3.70829556,11.7687639 3.70829556,8.83691855 C3.707941,5.90437179 6.11927268,3.51926651 9.08406544,3.51926651 L9.08406544,3.51926651 Z" id="o-top"></path>
                    <path d="M35.5363847,14.9745053 L35.5363847,14.9745053 L35.5363847,14.9745053 C38.9578449,11.5899073 38.9578449,6.08322837 35.5363847,2.69898107 C32.1149245,-0.685266243 26.5473401,-0.685616944 23.1258799,2.69898107 C21.4151498,4.39145543 20.5596075,6.614187 20.559962,8.83691855 L23.957667,8.83691855 C23.957667,7.47515352 24.4817,6.1133885 25.5301205,5.07672168 C27.6262524,3.00303728 31.0363668,3.00338798 33.1324987,5.07672168 C35.2286306,7.15005538 35.2289851,10.5227296 33.1328532,12.5960633 L21.2566635,24.3434345 L21.2566635,27.0778362 L38.1026571,27.0778362 L38.1026571,23.7258533 L26.6888077,23.7258533 L35.5363847,14.9745053 L35.5363847,14.9745053 Z" id="o-two"></path>
                    <rect id="o-bottom" x="0.308463251" y="23.7262039" width="17.5508498" height="3.35198299"></rect>
                </g>
            </g>
        </g>
    </g>
</svg>